# File created by Blade
# Date/Time:  Tue Apr 07 20:45:22 2015
# Frame Rate: 120.000 fps
#------------------------------------------------------
:FULLY-SPECIFIED
:DEGREES
770
root 3.361470 34.411191 -5.499827 16.085371 -18.409249 -45.108238
Spine 10.775164 21.629267 37.844314
Head 0.642202 -0.798534 -0.115459
LeftShoulder -21.873551 27.810357 29.932407
LeftArm 54.237701 -80.462512 -52.612784
LeftForeArm 15.476845 -0.000000 18.561501
LeftHand 9.545304 0.000000 17.324265
LeftHandThumb1 -26.253704 0.000000 33.147579
RightShoulder -5.405141 31.359093 -35.133892
RightArm 78.871894 81.140644 115.926261
RightForeArm 50.200197 -0.000000 53.411720
RightHand 2.901069 -0.000000 28.400845
RightHandThumb1 -24.326973 -0.000000 -32.862282
LeftUpLeg -7.091862 -8.436373 38.883744
LeftLeg 20.257356 -0.000000 -0.000000
LeftFoot -13.278163 24.734110 -12.380076
LeftToeBase -13.554753 -0.000000 0.000000
RightUpLeg -131.203537 -52.558236 18.363125
RightLeg -5.182471 -0.000000 0.000000
RightFoot 40.330359 -24.252756 10.119764
RightToeBase 17.092197 -0.000000 -0.000000
771
root 3.361298 34.405502 -5.459163 15.929268 -18.418096 -45.070290
Spine 10.973528 21.318120 38.033491
Head 0.478731 -0.641922 -0.615852
LeftShoulder -21.799896 27.884733 29.915486
LeftArm 54.431295 -80.534062 -53.398026
LeftForeArm 15.249082 -0.000000 18.117455
LeftHand 9.582117 -0.000000 17.142119
LeftHandThumb1 -26.253704 0.000000 33.147579
RightShoulder -5.173029 31.343517 -35.154526
RightArm 77.918694 81.212369 114.933951
RightForeArm 50.868902 -0.000000 53.468538
RightHand 3.042536 -0.000000 28.030421
RightHandThumb1 -24.326973 -0.000000 -32.862282
LeftUpLeg -6.962515 -8.299422 38.760651
LeftLeg 20.325773 -0.000000 -0.000000
LeftFoot -13.166382 24.888992 -12.010978
LeftToeBase -13.749567 -0.000000 0.000000
RightUpLeg -131.201619 -52.510329 18.476963
RightLeg -5.122594 -0.000000 0.000000
RightFoot 40.295288 -24.264000 9.610097
RightToeBase 17.407020 -0.000000 -0.000000
772
root 3.362998 34.400362 -5.416931 15.823272 -18.425879 -45.084591
Spine 11.137521 21.054440 38.286592
Head 0.341739 -0.545818 -1.078404
LeftShoulder -21.667795 27.923096 29.930429
LeftArm 54.686576 -80.616557 -54.225546
LeftForeArm 15.116473 -0.000000 17.596391
LeftHand 9.560758 -0.000000 16.929611
LeftHandThumb1 -26.253704 0.000000 33.147579
RightShoulder -4.903469 31.354883 -35.185068
RightArm 76.377779 81.360863 113.387654
RightForeArm 51.658483 0.000000 53.547897
RightHand 3.245619 -0.000000 27.516301
RightHandThumb1 -24.326973 -0.000000 -32.862282
LeftUpLeg -6.832580 -8.179957 38.680335
LeftLeg 20.370663 -0.000000 -0.000000
LeftFoot -13.156865 25.057974 -11.660860
LeftToeBase -14.154522 -0.000000 0.000000
RightUpLeg -131.165799 -52.473945 18.615055
RightLeg -5.068870 -0.000000 0.000000
RightFoot 40.278057 -24.397021 9.014983
RightToeBase 17.361919 -0.000000 -0.000000
773
root 3.365462 34.393365 -5.374551 15.716852 -18.463800 -45.101168
Spine 11.313759 20.817846 38.509327
Head 0.183073 -0.445693 -1.426352
LeftShoulder -21.523124 27.983799 30.004620
LeftArm 54.540278 -80.687618 -54.689742
LeftForeArm 14.884415 -0.000000 17.129619
LeftHand 9.582552 -0.000000 16.621107
LeftHandThumb1 -26.253704 0.000000 33.147579
RightShoulder -4.616554 31.280573 -35.134469
RightArm 75.029759 81.464098 111.994645
RightForeArm 52.588520 -0.000000 53.525861
RightHand 3.369848 -0.000000 27.089728
RightHandThumb1 -24.326973 -0.000000 -32.862282
LeftUpLeg -6.672893 -8.146183 38.575199
LeftLeg 20.416990 -0.000000 -0.000000
LeftFoot -13.032688 25.252246 -11.152768
LeftToeBase -14.087868 -0.000000 0.000000
RightUpLeg -131.175362 -52.363950 18.802919
RightLeg -4.957304 -0.000000 0.000000
RightFoot 40.288279 -24.582116 8.337993
RightToeBase 17.460493 -0.000000 -0.000000
774
root 3.368674 34.385426 -5.331267 15.591331 -18.558312 -45.111078
Spine 11.550508 20.544812 38.694619
Head -0.051714 -0.268259 -1.656369
LeftShoulder -21.447046 28.099906 30.040104
LeftArm 54.004853 -80.785047 -54.749260
LeftForeArm 14.613295 -0.000000 16.667958
LeftHand 9.479050 -0.000000 16.370860
LeftHandThumb1 -26.253704 0.000000 33.147579
RightShoulder -4.269150 31.296482 -35.026263
RightArm 73.333979 81.581492 110.237007
RightForeArm 53.618752 -0.000000 53.343658
RightHand 3.561729 -0.000000 26.676385
RightHandThumb1 -24.326973 -0.000000 -32.862282
LeftUpLeg -6.438497 -8.236420 38.438587
LeftLeg 20.430744 -0.000000 -0.000000
LeftFoot -13.027511 25.590322 -10.785438
LeftToeBase -14.111974 -0.000000 0.000000
RightUpLeg -131.206473 -52.153477 19.002584
RightLeg -4.746335 -0.000000 0.000000
RightFoot 40.199864 -24.853490 7.750504
RightToeBase 17.645728 -0.000000 -0.000000
